<?xml version="1.0" standalone="no"?>
<!DOCTYPE svg PUBLIC "-//W3C//DTD SVG 20010904//EN"
 "http://www.w3.org/TR/2001/REC-SVG-20010904/DTD/svg10.dtd">
<svg version="1.0" xmlns="http://www.w3.org/2000/svg"
 width="482.000000pt" height="152.000000pt" viewBox="0 0 482.000000 152.000000"
 preserveAspectRatio="xMidYMid meet">

<g transform="translate(0.000000,152.000000) scale(0.100000,-0.100000)"
fill="#000000" stroke="none">
<path d="M284 1339 c-42 -12 -121 -98 -129 -140 -3 -19 -5 -223 -3 -455 l3
-421 39 -47 c21 -26 50 -55 64 -64 24 -16 166 -17 2107 -20 1144 -2 2100 0
2124 3 50 8 125 69 147 122 11 25 14 122 14 452 0 248 -4 430 -10 445 -16 44
-89 115 -129 126 -46 13 -4182 12 -4227 -1z m505 -370 c54 -11 101 -53 101
-90 0 -28 -91 -28 -120 1 -32 32 -120 21 -120 -15 0 -20 23 -30 112 -49 96
-21 138 -55 138 -111 0 -92 -58 -130 -195 -130 -121 0 -162 24 -180 103 l-7
32 61 0 c54 0 61 -2 61 -20 0 -25 29 -40 79 -40 43 0 74 21 65 45 -6 16 -41
28 -129 45 -45 10 -67 20 -93 46 -31 31 -34 39 -29 75 12 94 117 138 256 108z
m1540 -14 c34 -17 61 -51 61 -77 0 -28 -99 -26 -124 3 -31 37 -135 14 -119
-27 2 -7 37 -20 76 -29 138 -32 177 -61 177 -136 0 -42 -52 -93 -111 -109 -56
-16 -164 -8 -207 14 -20 10 -39 31 -48 51 -25 60 -21 65 46 65 53 0 60 -2 60
-20 0 -24 28 -40 70 -40 41 0 70 16 70 39 0 22 -12 27 -105 47 -106 22 -144
53 -145 115 0 57 42 101 115 120 43 12 149 2 184 -16z m-819 -180 l0 -195 -50
0 -50 0 0 195 0 195 50 0 50 0 0 -195z m2520 115 l0 -79 38 25 c31 22 45 25
90 22 92 -8 122 -57 122 -200 l0 -78 -55 0 -55 0 0 85 c0 72 -3 88 -20 105
-21 21 -32 23 -68 14 -35 -10 -52 -54 -52 -134 l0 -70 -50 0 -50 0 0 195 0
195 50 0 50 0 0 -80z m-2756 -59 c92 -57 88 -184 -8 -233 -50 -26 -138 -34
-195 -18 -51 13 -106 63 -117 103 -16 67 30 145 99 167 57 17 179 6 221 -19z
m624 5 c97 -51 94 -193 -6 -242 -54 -27 -185 -26 -232 2 -86 50 -104 143 -40
209 17 18 46 37 63 43 47 16 175 9 215 -12z m820 4 c33 -15 47 -29 62 -62 11
-24 20 -53 20 -65 0 -23 -2 -23 -120 -23 -98 0 -120 -3 -120 -14 0 -41 90 -62
112 -26 10 16 24 20 65 20 60 0 66 -11 33 -53 -51 -65 -222 -63 -285 3 -39 40
-46 119 -15 168 41 67 161 92 248 52z m389 5 c56 -22 66 -45 71 -162 l5 -103
-52 0 c-34 0 -53 5 -57 14 -4 11 -12 10 -42 -6 -28 -15 -50 -18 -91 -14 -72 7
-103 35 -99 90 5 60 38 80 144 85 84 3 100 11 72 39 -17 17 -73 15 -88 -3 -18
-21 -110 -21 -110 0 0 21 46 63 73 68 51 10 139 6 174 -8z m677 1 c34 -14 76
-59 76 -82 0 -10 -15 -14 -54 -14 -46 0 -56 3 -61 20 -8 25 -49 36 -80 22 -13
-6 -28 -26 -34 -45 -25 -74 37 -140 95 -102 13 8 24 20 24 25 0 6 25 10 55 10
65 0 72 -15 27 -60 -67 -66 -214 -66 -280 0 -71 71 -43 191 53 225 52 18 137
19 179 1z m-424 -17 l0 -20 26 20 c15 12 41 21 60 21 33 0 34 -1 34 -42 0 -43
0 -43 -37 -44 -57 -1 -83 -38 -83 -120 l0 -64 -49 0 -50 0 -3 135 -3 135 53 0
c46 0 52 -2 52 -21z"/>
<path d="M1103 789 c-42 -22 -52 -87 -20 -128 35 -42 116 -31 137 19 13 32 6
83 -15 100 -20 16 -77 21 -102 9z"/>
<path d="M1725 777 c-52 -44 -33 -125 32 -142 60 -15 112 41 98 104 -8 37 -24
50 -67 58 -27 4 -41 0 -63 -20z"/>
<path d="M2577 782 c-9 -10 -17 -22 -17 -25 0 -4 30 -7 66 -7 l66 0 -14 23
c-20 30 -78 35 -101 9z"/>
<path d="M2980 691 c-32 -9 -40 -47 -11 -56 38 -12 101 21 101 52 0 14 -46 16
-90 4z"/>
</g>
</svg>
